<?xml version="1.0" standalone="no"?>
<!DOCTYPE svg PUBLIC "-//W3C//DTD SVG 20010904//EN"
 "http://www.w3.org/TR/2001/REC-SVG-20010904/DTD/svg10.dtd">
<svg version="1.0" xmlns="http://www.w3.org/2000/svg"
 width="468pt" height="475pt" viewBox="0 0 468 475"
 preserveAspectRatio="xMidYMid meet">
<metadata>
Created by potrace 1.7, written by Peter Selinger 2001-2005
</metadata>
<g transform="translate(0,475) scale(0.158108,-0.158108)"
fill="#000000" stroke="none">
<path d="M1444 2961 c-32 -20 -113 -115 -173 -204 -37 -55 -36 -55 -119 1 -70
48 -167 97 -207 106 -57 12 -86 -41 -130 -233 -13 -57 -26 -105 -28 -107 -2
-2 -39 3 -83 12 -43 9 -121 17 -172 17 -122 2 -126 -2 -118 -129 5 -80 11
-121 31 -211 5 -19 -1 -23 -52 -33 -155 -32 -256 -69 -273 -101 -17 -32 34
-149 119 -273 17 -24 31 -49 31 -53 0 -5 -39 -36 -86 -68 -106 -71 -184 -146
-184 -175 0 -29 85 -112 188 -184 45 -32 82 -60 82 -62 0 -3 -17 -31 -38 -62
-58 -87 -99 -164 -112 -212 -10 -39 -9 -44 11 -66 25 -27 116 -58 244 -84 68
-14 80 -19 78 -36 -2 -10 -10 -71 -19 -134 -20 -136 -14 -204 18 -221 26 -14
154 -6 259 16 40 9 73 14 75 12 2 -2 10 -37 19 -78 26 -124 55 -210 80 -234
19 -20 28 -22 56 -16 43 10 121 49 210 107 38 24 73 44 78 44 4 0 25 -26 46
-57 64 -98 136 -183 167 -199 28 -15 32 -14 68 10 35 23 134 145 176 215 10
17 22 31 26 31 4 0 38 -20 75 -44 98 -63 184 -105 223 -108 28 -3 37 2 56 30
26 37 46 99 70 217 10 44 20 83 24 88 4 4 38 1 76 -7 110 -23 217 -30 257 -17
27 9 37 19 42 42 8 36 -2 148 -21 243 -16 79 -16 80 55 91 66 10 208 53 237
71 47 31 20 119 -84 278 l-51 76 62 42 c100 67 181 136 201 168 17 30 17 31
-4 65 -22 36 -106 107 -202 170 l-57 37 48 72 c64 94 108 184 113 226 3 29 -2
37 -31 57 -37 25 -131 55 -231 74 -36 6 -68 15 -73 19 -4 3 -1 40 7 82 37 191
30 282 -21 294 -32 8 -157 -3 -247 -22 -38 -8 -71 -13 -73 -10 -2 2 -15 52
-28 111 -26 115 -66 214 -87 216 -52 5 -150 -38 -260 -112 -31 -22 -61 -39
-66 -39 -5 0 -26 26 -47 58 -54 82 -125 166 -161 191 -37 25 -32 25 -70 2z
m97 -51 c26 -27 74 -90 108 -140 70 -102 58 -100 161 -30 75 51 169 97 205
101 27 4 32 -1 53 -42 12 -25 34 -97 48 -160 14 -62 29 -118 34 -122 4 -5 43
-2 85 7 103 21 236 30 255 17 20 -14 18 -147 -4 -260 -9 -46 -16 -89 -16 -96
0 -8 22 -18 58 -25 109 -21 214 -51 253 -70 35 -19 38 -23 33 -53 -8 -38 -69
-155 -124 -233 -22 -31 -37 -60 -35 -64 3 -4 48 -38 100 -75 94 -67 175 -144
175 -167 0 -20 -94 -103 -189 -167 -50 -34 -91 -63 -91 -66 0 -2 25 -42 55
-89 67 -102 105 -182 105 -219 0 -24 -7 -31 -45 -48 -25 -11 -96 -32 -158 -45
-62 -14 -116 -29 -120 -34 -5 -4 -2 -41 6 -82 21 -100 31 -239 18 -258 -14
-21 -159 -18 -270 5 -81 16 -85 16 -98 -1 -7 -10 -13 -25 -13 -34 0 -33 -53
-226 -72 -263 -18 -36 -21 -38 -51 -31 -44 9 -139 58 -223 115 -39 26 -75 44
-80 41 -5 -4 -32 -40 -59 -81 -58 -86 -154 -191 -175 -191 -21 0 -107 95 -169
186 -30 43 -57 83 -61 87 -4 5 -45 -16 -91 -46 -154 -100 -226 -128 -253 -98
-19 21 -50 119 -71 223 -9 45 -20 87 -25 91 -4 5 -43 2 -86 -7 -44 -9 -118
-19 -166 -23 l-87 -6 -12 29 c-13 34 -6 146 16 262 18 90 14 95 -62 107 -73
11 -193 44 -235 66 -37 19 -39 22 -32 52 9 45 58 139 116 224 l49 73 -47 32
c-143 99 -234 181 -234 210 0 19 89 100 185 167 50 34 89 67 88 72 -2 5 -23
40 -47 78 -52 81 -100 175 -109 212 -10 40 18 59 143 93 30 8 83 20 118 27 34
6 65 15 67 19 3 5 -2 43 -11 86 -9 44 -17 119 -18 169 l-1 90 37 9 c27 7 73 4
160 -9 185 -27 171 -30 186 40 25 111 63 240 78 263 13 19 21 22 47 16 44 -9
117 -47 215 -110 l82 -54 33 47 c99 142 180 233 209 233 7 0 33 -22 59 -50z"/>
<path d="M1536 2752 c-3 -6 15 -103 30 -159 5 -20 18 -16 60 21 l39 34 -45 47
c-49 51 -76 69 -84 57z m82 -124 c-13 -10 -26 -18 -29 -18 -6 0 -29 92 -29
113 1 7 19 -8 41 -32 l40 -45 -23 -18z"/>
<path d="M1336 2698 l-49 -51 33 -29 c43 -35 58 -35 66 0 3 15 10 43 15 62 22
86 5 90 -65 18z m40 -36 l-12 -54 -24 20 -25 21 34 35 c19 20 36 35 37 33 1
-1 -3 -26 -10 -55z"/>
<path d="M1445 2697 c-8 -20 -18 -61 -21 -92 -6 -49 -4 -58 16 -80 29 -31 41
-31 70 0 22 24 23 28 12 85 -20 111 -52 147 -77 87z m44 -28 c6 -17 13 -52 17
-79 5 -41 3 -50 -12 -58 -26 -14 -54 8 -54 41 0 40 21 127 30 127 4 0 13 -14
19 -31z"/>
<path d="M1060 2674 c0 -3 21 -35 47 -71 51 -72 52 -72 89 0 l15 28 -53 24
c-49 23 -98 33 -98 19z m80 -30 c43 -17 48 -28 26 -57 -13 -17 -16 -15 -46 27
-17 25 -29 46 -26 46 3 0 24 -7 46 -16z"/>
<path d="M1803 2655 c-29 -13 -53 -29 -53 -34 0 -15 41 -81 51 -81 4 0 14 10
20 23 7 12 25 39 41 59 47 61 25 73 -59 33z m30 -44 c-15 -22 -31 -40 -34 -41
-3 0 -11 11 -17 25 -11 25 -10 27 30 45 23 10 44 17 46 15 2 -1 -9 -21 -25
-44z"/>
<path d="M922 2627 c-19 -22 -52 -101 -52 -124 0 -17 9 -24 38 -32 69 -20 69
-21 51 89 -11 72 -20 88 -37 67z m22 -96 c6 -47 5 -53 -9 -47 -9 3 -23 6 -31
6 -18 0 -18 20 2 70 20 50 29 43 38 -29z"/>
<path d="M1002 2623 c-11 -20 0 -112 17 -156 11 -27 54 -52 72 -41 5 3 16 19
25 35 14 28 14 32 -7 67 -32 53 -79 112 -89 112 -5 0 -13 -8 -18 -17z m71 -75
c34 -51 36 -59 25 -83 -7 -16 -17 -24 -26 -20 -7 3 -17 5 -22 5 -8 0 -26 64
-34 123 -7 52 10 45 57 -25z"/>
<path d="M1908 2613 c-14 -16 -40 -50 -57 -77 -29 -46 -29 -50 -15 -78 13 -26
19 -29 47 -23 47 10 55 22 68 101 18 103 4 127 -43 77z m32 -23 c0 -10 -5 -42
-11 -70 -9 -41 -16 -53 -37 -61 -21 -8 -29 -7 -39 7 -14 19 -14 17 35 92 36
55 52 65 52 32z"/>
<path d="M2006 2629 c-12 -34 -23 -145 -16 -152 4 -5 26 -3 49 3 48 13 51 26
22 92 -22 51 -48 78 -55 57z m44 -79 c15 -45 15 -45 -22 -54 -21 -5 -25 -3
-23 12 2 9 7 34 10 55 7 45 17 42 35 -13z"/>
<path d="M1216 2538 l-34 -53 43 -85 c23 -47 59 -129 80 -184 24 -63 41 -93
45 -85 5 8 10 99 11 203 l4 189 -45 33 c-25 19 -51 34 -58 34 -7 0 -27 -24
-46 -52z m95 5 c39 -27 40 -30 35 -72 -4 -24 -6 -98 -6 -165 l-1 -121 -33 80
c-18 44 -47 108 -64 142 -18 34 -32 68 -32 75 0 14 47 88 56 88 3 0 24 -12 45
-27z"/>
<path d="M1634 2557 c-47 -33 -49 -36 -49 -80 4 -433 1 -420 68 -246 21 52 55
130 77 174 l41 78 -33 54 c-18 29 -38 53 -44 53 -7 0 -34 -15 -60 -33z m88
-30 l28 -43 -34 -65 c-18 -35 -48 -101 -67 -146 -18 -46 -34 -82 -35 -80 -1 1
-4 73 -7 160 l-5 158 40 30 c23 16 44 29 47 29 3 0 18 -19 33 -43z"/>
<path d="M1416 2471 c-4 -5 -2 -12 3 -15 5 -4 12 -2 15 3 4 5 2 12 -3 15 -5 4
-12 2 -15 -3z"/>
<path d="M2180 2451 c-22 -6 -25 -12 -22 -47 6 -64 11 -66 72 -28 30 19 62 39
70 44 37 22 -64 48 -120 31z m84 -20 c3 -5 -13 -20 -37 -34 l-42 -25 -5 26
c-4 18 -1 29 10 34 22 10 68 9 74 -1z"/>
<path d="M675 2443 c-11 -3 -24 -9 -29 -13 -9 -9 99 -82 124 -84 15 -1 34 73
21 86 -9 10 -91 18 -116 11z m81 -19 c16 -4 19 -12 16 -34 l-4 -28 -43 27
c-24 14 -41 29 -38 34 5 8 39 9 69 1z"/>
<path d="M1438 2419 c-27 -20 -28 -23 -28 -122 0 -159 18 -365 35 -398 20 -37
40 -37 61 2 12 24 18 86 27 261 l11 231 -28 23 c-33 29 -43 29 -78 3z m66 -14
c19 -14 19 -22 9 -244 -11 -224 -22 -286 -45 -263 -18 18 -26 95 -34 300 -7
182 -6 193 12 207 24 18 34 18 58 0z"/>
<path d="M2030 2428 c-60 -13 -65 -19 -91 -96 -12 -37 -43 -118 -69 -180 -27
-61 -45 -114 -41 -116 3 -2 71 59 150 136 l143 139 -6 52 c-7 48 -20 78 -35
76 -3 -1 -26 -6 -51 -11z m66 -70 c6 -45 5 -49 -27 -75 -19 -15 -72 -64 -118
-108 -81 -78 -83 -79 -66 -40 9 22 35 90 57 152 l40 111 47 9 c25 5 49 7 53 3
4 -3 11 -27 14 -52z"/>
<path d="M853 2418 c-6 -7 -14 -38 -18 -69 l-7 -55 49 -39 c26 -22 94 -87 150
-144 57 -58 105 -102 108 -99 3 3 -14 50 -38 105 -24 54 -56 137 -72 183 -15
47 -32 90 -37 96 -5 7 -29 15 -55 19 -25 4 -51 9 -58 11 -6 3 -17 -1 -22 -8z
m158 -133 c19 -55 45 -122 57 -149 12 -27 22 -51 22 -53 0 -3 -54 46 -120 109
l-120 113 6 45 c3 25 8 48 10 51 2 4 28 2 56 -5 l53 -11 36 -100z"/>
<path d="M1146 2421 c-4 -5 -2 -12 3 -15 5 -4 12 -2 15 3 4 5 2 12 -3 15 -5 4
-12 2 -15 -3z"/>
<path d="M1882 2379 c5 -14 16 -15 21 -2 1 3 -4 8 -12 11 -8 3 -12 -1 -9 -9z"/>
<path d="M604 2366 c-7 -17 39 -105 73 -142 18 -19 29 -23 50 -18 32 7 53 30
53 55 0 20 -80 82 -134 104 -32 14 -37 14 -42 1z m97 -54 c63 -44 73 -67 32
-83 -25 -9 -30 -7 -51 18 -13 15 -32 45 -43 66 -26 49 -9 49 62 -1z"/>
<path d="M1784 2370 c-17 -6 -37 -47 -82 -162 -94 -242 -114 -310 -103 -342
29 -75 93 16 230 327 l53 117 -22 35 c-22 35 -38 41 -76 25z m60 -35 c15 -23
15 -28 -10 -87 -65 -156 -173 -367 -192 -377 -49 -26 -28 58 82 344 57 147 85
174 120 120z"/>
<path d="M2274 2355 c-27 -13 -61 -36 -76 -50 -23 -21 -26 -31 -21 -58 13 -66
58 -65 107 2 55 74 75 131 46 131 -3 0 -28 -11 -56 -25z m46 -13 c0 -5 -17
-33 -38 -63 -44 -63 -77 -76 -85 -32 -7 35 -4 39 51 74 46 29 72 36 72 21z"/>
<path d="M1091 2341 l-21 -30 60 -135 c118 -267 167 -347 204 -333 37 14 17
99 -90 381 -38 101 -53 130 -72 137 -40 15 -60 10 -81 -20z m80 -3 c28 -23
159 -390 159 -445 0 -31 -2 -33 -20 -23 -21 11 -64 90 -130 239 -21 47 -50
111 -63 142 -23 51 -24 58 -11 78 17 24 43 27 65 9z"/>
<path d="M529 2313 c-10 -25 -6 -103 5 -122 7 -11 87 0 92 14 5 13 -65 134
-79 135 -4 0 -12 -12 -18 -27z m57 -61 l25 -42 -29 0 c-33 0 -42 14 -42 62 0
39 15 33 46 -20z"/>
<path d="M2354 2284 c-20 -33 -37 -65 -38 -73 -1 -18 73 -36 87 -22 14 14 14
128 0 142 -8 8 -20 -4 -49 -47z m41 -44 c-5 -31 -11 -40 -22 -36 -8 3 -21 6
-29 6 -10 0 -6 13 14 45 31 52 47 46 37 -15z"/>
<path d="M2112 2229 c5 -14 16 -15 21 -2 1 3 -4 8 -12 11 -8 3 -12 -1 -9 -9z"/>
<path d="M830 2181 c-18 -5 -27 -17 -34 -46 l-9 -40 114 -108 c168 -159 254
-227 290 -227 25 0 29 4 29 29 0 23 -21 53 -91 133 -123 138 -251 268 -264
267 -5 -1 -21 -4 -35 -8z m145 -118 c145 -154 225 -248 225 -267 0 -48 -84 12
-298 215 -87 82 -93 91 -87 118 6 26 17 36 49 40 5 0 55 -47 111 -106z"/>
<path d="M1999 2123 c-190 -197 -269 -294 -269 -332 0 -15 2 -30 5 -33 23 -23
116 48 327 250 93 89 98 97 92 126 -8 39 -11 42 -54 50 -34 6 -39 2 -101 -61z
m116 37 c7 0 16 -12 19 -26 6 -24 -4 -37 -101 -129 -154 -145 -248 -225 -267
-225 -48 0 1 69 193 275 101 108 111 117 129 110 8 -3 20 -5 27 -5z"/>
<path d="M745 2159 c-10 -15 3 -25 16 -12 7 7 7 13 1 17 -6 3 -14 1 -17 -5z"/>
<path d="M588 2143 c-41 -6 -48 -21 -36 -78 6 -28 14 -55 20 -62 5 -6 46 -23
91 -38 45 -15 126 -47 179 -71 54 -23 99 -40 102 -36 2 4 -58 71 -135 150
-146 150 -141 147 -221 135z m110 -45 c14 -18 63 -71 107 -117 78 -81 79 -83
40 -66 -71 30 -169 67 -217 81 -44 14 -47 17 -53 57 -9 60 -9 61 17 69 53 14
79 9 106 -24z"/>
<path d="M2225 2104 c-21 -27 -86 -95 -144 -151 -58 -57 -102 -105 -99 -108 3
-3 48 13 99 36 52 23 137 56 189 74 103 34 105 37 123 132 8 39 -6 49 -79 58
l-50 7 -39 -48z m146 10 c4 -2 2 -28 -5 -56 l-11 -53 -100 -36 c-55 -19 -122
-45 -149 -57 -27 -12 -51 -22 -53 -22 -3 0 46 54 109 120 l113 120 45 -6 c25
-3 48 -8 51 -10z"/>
<path d="M405 2091 c-22 -10 -46 -25 -53 -34 -12 -14 -11 -17 10 -21 72 -16
134 -23 141 -17 5 5 3 27 -3 50 -13 48 -30 52 -95 22z m77 -26 c5 -22 2 -25
-26 -24 -17 1 -42 4 -56 9 -25 7 -25 7 10 23 50 23 67 21 72 -8z"/>
<path d="M2440 2069 c-17 -61 -11 -68 47 -57 26 5 63 13 81 16 19 4 35 12 35
17 3 13 -101 65 -129 65 -19 0 -25 -8 -34 -41z m90 5 c50 -20 43 -29 -29 -38
-47 -6 -53 -5 -47 9 3 9 6 23 6 31 0 18 20 18 70 -2z"/>
<path d="M345 1979 c-14 -22 109 -119 152 -119 30 0 52 30 46 62 -7 36 -18 43
-81 57 -67 14 -109 14 -117 0z m115 -20 c41 -9 53 -16 61 -37 10 -26 0 -42
-29 -42 -18 0 -122 69 -122 81 0 12 28 11 90 -2z"/>
<path d="M2460 1968 c-40 -11 -55 -24 -64 -55 -5 -16 0 -26 25 -44 l32 -22 43
23 c62 35 119 84 110 98 -9 14 -96 14 -146 0z m114 -19 c-3 -6 -30 -26 -60
-45 -47 -30 -56 -33 -79 -22 -19 9 -24 16 -19 32 8 26 3 23 44 34 49 14 123
15 114 1z"/>
<path d="M585 1931 c-7 -12 12 -24 25 -16 11 7 4 25 -10 25 -5 0 -11 -4 -15
-9z"/>
<path d="M300 1900 c0 -21 46 -120 56 -120 12 0 84 41 84 48 0 10 -117 92
-131 92 -5 0 -9 -9 -9 -20z m70 -39 c40 -29 40 -34 3 -55 -8 -4 -20 8 -33 33
-31 62 -28 64 30 22z"/>
<path d="M2580 1879 c-77 -57 -77 -55 -31 -83 22 -14 43 -26 46 -26 10 0 55
104 55 128 0 29 -6 28 -70 -19z m34 -38 c-17 -43 -29 -49 -58 -28 -16 11 -13
15 26 44 24 17 44 30 46 28 2 -1 -5 -21 -14 -44z"/>
<path d="M626 1885 c-27 -21 -28 -27 -20 -57 9 -31 17 -36 129 -81 279 -112
389 -140 402 -101 8 24 -45 68 -136 113 -130 66 -320 151 -334 151 -7 -1 -25
-11 -41 -25z m181 -54 c204 -93 291 -139 302 -160 25 -46 -57 -27 -332 79
-110 42 -141 58 -150 78 -10 21 -8 27 12 43 13 11 27 19 32 19 4 0 66 -26 136
-59z"/>
<path d="M2115 1836 c-212 -96 -280 -133 -295 -161 -41 -76 66 -58 400 70 52
20 98 40 103 44 4 4 8 24 10 44 2 32 -2 40 -28 56 l-30 19 -160 -72z m201 20
c12 -32 -14 -61 -77 -85 -215 -79 -344 -121 -375 -121 -32 0 -34 2 -24 20 13
24 44 40 265 141 172 78 196 83 211 45z"/>
<path d="M2376 1831 c-4 -5 -2 -12 3 -15 5 -4 12 -2 15 3 4 5 2 12 -3 15 -5 4
-12 2 -15 -3z"/>
<path d="M442 1768 c-28 -18 -52 -37 -52 -43 0 -6 16 -34 36 -64 l36 -53 57 6
c31 3 125 6 209 7 173 1 175 4 42 54 -41 15 -120 50 -174 76 -54 27 -99 49
-100 49 -1 0 -25 -15 -54 -32z m153 -37 c50 -24 117 -54 150 -67 l60 -23 -121
-1 c-67 0 -142 -3 -167 -6 -44 -6 -46 -6 -76 36 -17 24 -31 46 -31 50 0 9 82
60 90 57 3 -2 46 -22 95 -46z"/>
<path d="M2368 1755 c-37 -19 -113 -53 -170 -76 -57 -22 -107 -44 -112 -49 -4
-4 59 -9 140 -9 82 -1 174 -4 206 -7 l56 -6 36 48 c19 27 36 54 36 60 0 14
-91 74 -111 74 -8 -1 -44 -16 -81 -35z m135 -11 c37 -25 37 -25 22 -52 -37
-62 -26 -59 -203 -54 l-164 5 93 38 c51 21 113 49 138 63 59 31 69 31 114 0z"/>
<path d="M1360 1743 c-134 -71 -188 -228 -122 -354 95 -182 341 -198 452 -31
65 99 67 199 4 289 -52 75 -121 114 -212 120 -59 4 -73 2 -122 -24z m226 -21
c89 -46 139 -132 131 -227 -10 -134 -111 -235 -233 -235 -69 0 -120 19 -169
62 -65 58 -89 114 -83 198 4 55 12 79 36 117 31 48 45 60 112 96 46 24 147 19
206 -11z"/>
<path d="M271 1640 c-77 -77 -70 -87 43 -60 43 11 81 22 84 25 6 6 -49 77 -65
82 -6 2 -34 -19 -62 -47z m99 -21 c0 -7 -110 -32 -116 -26 -3 2 14 21 37 42
l42 38 18 -24 c10 -13 19 -27 19 -30z"/>
<path d="M2584 1655 c-14 -19 -24 -41 -21 -48 5 -13 21 -17 125 -34 17 -3 32
-2 32 2 0 14 -41 63 -74 89 l-35 26 -27 -35z m76 -30 c37 -39 36 -40 -32 -22
-47 13 -47 13 -32 35 20 29 24 28 64 -13z"/>
<path d="M561 1544 c-12 -15 -21 -32 -21 -39 0 -7 9 -24 21 -39 19 -25 25 -26
107 -26 172 0 383 20 413 37 72 43 13 70 -173 83 -79 5 -184 10 -235 10 -87 0
-93 -1 -112 -26z m347 -4 c145 -10 194 -22 173 -43 -16 -16 -106 -25 -311 -33
l-185 -7 -14 25 c-10 20 -10 30 -2 47 11 19 20 21 104 21 51 0 156 -5 235 -10z"/>
<path d="M2018 1559 c-157 -10 -215 -39 -159 -78 23 -17 54 -22 177 -31 82 -5
190 -10 241 -10 87 0 93 1 112 26 26 33 26 39 0 75 l-20 29 -117 -1 c-64 -1
-170 -5 -234 -10z m360 -34 c9 -20 9 -30 0 -45 -11 -18 -24 -20 -103 -20 -163
0 -389 20 -404 34 -11 12 -10 16 8 26 25 13 200 26 372 29 115 1 116 1 127
-24z"/>
<path d="M2426 1561 c-4 -5 -2 -12 3 -15 5 -4 12 -2 15 3 4 5 2 12 -3 15 -5 4
-12 2 -15 -3z"/>
<path d="M312 1539 c-82 -26 -81 -46 3 -72 80 -24 122 -20 148 15 l21 28 -24
25 c-29 31 -61 31 -148 4z m137 -17 c13 -25 -10 -52 -46 -52 -16 0 -54 7 -84
17 l-54 16 55 18 c73 23 117 24 129 1z"/>
<path d="M2490 1536 c-23 -26 -24 -28 -8 -54 21 -34 59 -39 136 -17 57 17 82
31 82 45 0 13 -77 39 -132 46 -48 5 -55 4 -78 -20z m157 -17 l28 -11 -34 -15
c-91 -38 -169 -23 -139 27 11 19 19 21 65 16 28 -3 64 -11 80 -17z"/>
<path d="M506 1461 c-4 -5 -2 -12 3 -15 5 -4 12 -2 15 3 4 5 2 12 -3 15 -5 4
-12 2 -15 -3z"/>
<path d="M2655 1434 c-27 -7 -60 -14 -72 -14 -12 0 -25 -4 -28 -10 -8 -12 44
-90 60 -90 18 0 117 108 110 120 -7 12 -7 12 -70 -6z m6 -55 l-45 -40 -18 23
c-24 32 -23 34 25 45 81 20 86 16 38 -28z"/>
<path d="M230 1428 c0 -6 23 -34 52 -61 l51 -50 28 34 c16 19 28 40 26 48 -1
9 -25 19 -62 27 -77 16 -95 17 -95 2z m88 -21 l54 -13 -21 -24 -20 -25 -38 38
c-21 20 -35 37 -33 37 3 -1 29 -6 58 -13z"/>
<path d="M436 1369 c-16 -18 -33 -44 -39 -57 -10 -21 -8 -27 18 -48 62 -49 77
-50 161 -9 42 20 122 55 178 77 55 22 105 43 110 48 4 4 -59 9 -140 9 -82 1
-174 4 -205 7 -54 6 -56 5 -83 -27z m244 1 l115 -1 -61 -23 c-33 -13 -100 -43
-149 -66 l-89 -42 -33 17 c-55 30 -57 39 -27 85 l28 42 51 -6 c27 -3 102 -6
165 -6z"/>
<path d="M2419 1395 c-3 -2 -83 -5 -178 -5 -95 -1 -169 -5 -165 -10 5 -5 55
-27 112 -49 56 -23 139 -59 183 -82 l81 -40 42 25 c73 42 74 49 31 111 -32 47
-42 55 -70 55 -17 0 -34 -2 -36 -5z m92 -61 c17 -26 27 -49 22 -53 -5 -3 -25
-16 -45 -28 l-35 -23 -89 44 c-49 24 -117 54 -152 67 l-63 24 138 5 c76 3 150
7 165 8 22 2 33 -7 59 -44z"/>
<path d="M935 1341 c-183 -63 -299 -111 -312 -128 -23 -30 -16 -70 16 -92 l29
-21 174 78 c95 43 193 89 217 102 49 28 87 72 77 89 -13 21 -91 10 -201 -28z
m175 0 c-10 -20 -123 -78 -325 -169 -95 -43 -113 -48 -130 -37 -24 15 -31 57
-13 72 13 11 231 94 343 131 33 11 77 21 98 21 34 1 37 -1 27 -18z"/>
<path d="M1813 1364 c-14 -36 88 -99 357 -219 105 -47 105 -47 137 -30 38 21
44 34 34 72 -6 24 -20 33 -99 65 -161 65 -352 128 -388 128 -22 0 -37 -6 -41
-16z m162 -34 c49 -17 145 -51 213 -77 102 -38 125 -51 133 -72 8 -21 6 -28
-13 -43 -13 -10 -26 -18 -30 -18 -10 0 -221 96 -330 151 -105 53 -142 89 -90
89 15 0 68 -14 117 -30z"/>
<path d="M1178 1249 c-31 -8 -201 -155 -317 -273 -72 -72 -74 -76 -65 -107 8
-28 16 -35 49 -42 l40 -8 93 98 c163 173 233 259 239 296 6 40 -2 47 -39 36z
m22 -31 c-1 -24 -25 -56 -127 -170 -159 -178 -193 -208 -226 -201 -19 4 -29
13 -34 31 -7 28 11 47 251 263 92 82 137 107 136 77z"/>
<path d="M1728 1244 c-24 -23 99 -179 280 -357 60 -59 72 -67 95 -62 32 8 43
21 51 61 6 29 0 36 -116 145 -180 168 -244 219 -277 219 -15 0 -30 -3 -33 -6z
m144 -86 c46 -40 124 -113 175 -163 81 -79 92 -93 87 -117 -4 -18 -15 -29 -33
-33 -23 -6 -34 2 -99 72 -168 179 -252 278 -252 295 0 35 40 18 122 -54z"/>
<path d="M329 1198 c-29 -56 -40 -96 -28 -103 5 -4 39 15 75 41 73 52 73 53 2
90 -27 14 -28 14 -49 -28z m65 -1 c15 -11 13 -15 -29 -45 -49 -34 -54 -31 -28
23 18 38 29 42 57 22z"/>
<path d="M2543 1208 c-18 -11 -33 -23 -33 -27 0 -9 116 -91 130 -91 5 0 10 8
10 18 0 28 -48 122 -62 121 -7 0 -28 -10 -45 -21z m60 -25 c8 -16 18 -39 22
-52 7 -22 5 -21 -39 10 -25 19 -45 37 -46 40 0 5 32 24 47 28 1 1 9 -11 16
-26z"/>
<path d="M556 1191 c-4 -5 -2 -12 3 -15 5 -4 12 -2 15 3 4 5 2 12 -3 15 -5 4
-12 2 -15 -3z"/>
<path d="M870 1131 c-47 -22 -128 -54 -180 -72 -52 -18 -100 -36 -106 -41 -6
-4 -16 -34 -23 -66 -14 -68 -7 -77 71 -87 l51 -7 40 48 c22 27 86 95 143 151
57 56 104 104 104 107 0 11 -14 6 -100 -33z m-76 -123 l-119 -123 -45 3 c-24
1 -48 6 -52 10 -4 4 -2 30 5 57 l12 50 101 36 c56 20 125 48 155 62 30 14 56
26 58 26 2 1 -50 -54 -115 -121z"/>
<path d="M1288 1143 c-38 -40 -219 -411 -218 -446 1 -6 11 -25 25 -41 21 -27
27 -28 57 -20 30 9 36 18 71 104 75 189 128 354 125 390 -4 45 -25 49 -60 13z
m21 -111 c-49 -152 -131 -358 -146 -369 -25 -19 -41 -16 -59 12 -20 31 -22 25
96 271 87 181 122 229 128 178 2 -14 -6 -55 -19 -92z"/>
<path d="M1600 1144 c-7 -18 -6 -41 6 -82 18 -62 129 -363 144 -393 6 -10 27
-21 47 -25 30 -6 39 -3 54 17 10 13 19 32 19 41 0 18 -105 258 -160 366 -30
58 -70 102 -92 102 -4 0 -13 -12 -18 -26z m99 -103 c74 -147 151 -321 151
-341 0 -29 -27 -45 -58 -34 -28 10 -60 82 -143 327 -62 184 -32 212 50 48z"/>
<path d="M424 1122 c-66 -43 -89 -66 -79 -82 14 -22 172 -3 193 24 5 6 13 21
16 33 6 18 1 26 -26 43 -18 11 -36 20 -39 20 -3 0 -32 -17 -65 -38z m89 7 c30
-16 30 -15 18 -38 -13 -23 -67 -41 -124 -41 -47 0 -42 9 26 55 60 40 52 38 80
24z"/>
<path d="M2006 1151 c-2 -3 59 -71 135 -150 l139 -144 52 7 c72 10 77 16 65
79 -5 28 -14 57 -19 64 -5 7 -35 19 -66 28 -31 9 -112 41 -179 70 -68 29 -125
50 -127 46z m314 -137 c39 -8 49 -22 56 -76 6 -44 6 -45 -26 -52 -57 -11 -76
-7 -97 22 -12 16 -58 67 -102 114 l-81 86 110 -44 c61 -25 123 -47 140 -50z"/>
<path d="M2415 1136 c-16 -11 -17 -19 -9 -47 12 -42 42 -58 127 -66 102 -9 99
23 -10 93 -57 37 -79 41 -108 20z m96 -34 c24 -16 51 -37 59 -47 14 -17 12
-18 -44 -11 -68 8 -92 19 -101 46 -15 47 22 52 86 12z"/>
<path d="M1446 1115 c-18 -27 -36 -227 -36 -402 0 -98 1 -102 26 -122 34 -27
42 -26 78 3 l30 23 -12 232 c-9 188 -14 237 -29 261 -21 36 -36 38 -57 5z m57
-98 c4 -39 10 -146 13 -237 l7 -166 -27 -12 c-19 -9 -33 -9 -47 -2 -17 10 -19
22 -19 113 0 152 19 378 32 395 20 23 34 -9 41 -91z"/>
<path d="M2336 1091 c-4 -5 -2 -12 3 -15 5 -4 12 -2 15 3 4 5 2 12 -3 15 -5 4
-12 2 -15 -3z"/>
<path d="M425 991 c-44 -9 -80 -20 -80 -26 0 -14 103 -65 131 -65 18 0 25 8
33 38 13 44 14 59 4 65 -5 2 -44 -3 -88 -12z m71 -27 c-3 -9 -6 -22 -6 -30 0
-18 -20 -18 -70 2 -44 18 -43 30 5 37 66 9 77 8 71 -9z"/>
<path d="M1810 991 c0 -4 17 -46 39 -92 21 -46 53 -127 71 -179 18 -52 37
-100 42 -106 4 -6 34 -16 66 -23 68 -14 76 -7 86 71 l7 51 -53 45 c-29 25 -96
89 -150 143 -93 96 -108 108 -108 90z m282 -331 c-2 -25 -6 -48 -10 -52 -4 -3
-30 -2 -57 4 l-50 10 -34 96 c-18 52 -46 125 -62 160 l-29 65 122 -119 123
-118 -3 -46z"/>
<path d="M2444 986 c-3 -7 -1 -29 3 -47 7 -26 15 -35 34 -37 31 -3 114 38 114
58 0 9 -15 17 -45 22 -25 4 -58 10 -73 12 -18 4 -30 1 -33 -8z m125 -32 c6 -5
-65 -34 -84 -34 -8 0 -15 3 -15 8 0 4 -3 17 -6 28 -6 21 -4 21 48 12 29 -5 55
-12 57 -14z"/>
<path d="M969 836 l-145 -141 8 -50 c12 -69 22 -76 83 -63 28 5 55 15 62 22 6
6 23 47 38 91 14 44 44 121 67 172 22 51 38 96 36 101 -1 6 -69 -54 -149 -132z
m70 -22 c-21 -52 -46 -119 -54 -148 -16 -53 -16 -54 -66 -63 -48 -10 -51 -9
-60 14 -22 58 -12 85 49 136 32 26 83 73 112 102 30 30 55 55 56 55 1 0 -15
-43 -37 -96z"/>
<path d="M1588 698 c-6 -227 -6 -224 68 -264 l35 -19 19 25 c56 74 57 77 10
174 -23 49 -57 129 -77 180 -19 50 -38 95 -43 99 -4 5 -10 -83 -12 -195z m71
7 c24 -55 52 -115 62 -134 23 -39 20 -63 -14 -105 l-23 -29 -43 29 -43 28 6
60 c3 32 6 104 6 159 0 55 2 98 4 96 2 -2 22 -49 45 -104z"/>
<path d="M1337 883 c-3 -5 -16 -36 -28 -69 -11 -32 -46 -111 -76 -175 l-55
-116 34 -51 c18 -29 38 -52 43 -52 6 0 33 15 61 34 l51 34 -5 194 c-4 176 -10
225 -25 201z m6 -231 l4 -153 -41 -29 c-22 -17 -43 -30 -48 -30 -4 0 -19 20
-33 44 l-26 44 44 89 c24 48 55 116 68 151 13 35 25 57 26 50 1 -7 4 -82 6
-166z"/>
<path d="M2185 861 c-6 -11 9 -23 19 -14 9 9 7 23 -3 23 -6 0 -12 -4 -16 -9z"/>
<path d="M540 805 c-18 -47 -4 -145 19 -131 17 11 82 129 74 136 -4 4 -25 11
-46 14 -34 6 -38 5 -47 -19z m65 -5 c10 0 6 -13 -13 -45 -15 -24 -30 -45 -34
-45 -10 0 -10 62 -2 85 4 9 13 14 21 11 8 -3 21 -6 28 -6z"/>
<path d="M2360 820 c-25 -3 -44 -10 -43 -16 5 -25 77 -134 87 -131 22 7 28
141 7 150 -3 2 -26 0 -51 -3z m43 -50 c4 -16 3 -39 -1 -50 -6 -17 -11 -13 -35
30 l-28 50 29 0 c25 0 30 -5 35 -30z"/>
<path d="M672 773 c-43 -56 -76 -123 -64 -135 13 -13 88 21 134 60 28 26 34
37 30 59 -10 62 -58 69 -100 16z m79 -16 c7 -25 3 -31 -44 -62 -86 -58 -96
-47 -40 39 42 64 71 72 84 23z"/>
<path d="M2205 801 c-25 -5 -31 -12 -33 -38 -3 -28 3 -36 40 -63 67 -49 119
-73 131 -61 18 18 -74 174 -101 170 -4 -1 -20 -4 -37 -8z m80 -63 c52 -78 48
-94 -15 -57 -50 30 -80 60 -80 80 0 10 9 19 23 22 12 2 25 5 29 6 4 0 23 -23
43 -51z"/>
<path d="M816 791 c-4 -5 -2 -12 3 -15 5 -4 12 -2 15 3 4 5 2 12 -3 15 -5 4
-12 2 -15 -3z"/>
<path d="M2165 658 c-3 -7 -6 -28 -7 -47 -3 -33 -1 -35 35 -44 39 -9 108 1
110 17 2 9 -109 84 -126 85 -4 1 -10 -5 -12 -11z m98 -72 c-5 -7 -80 -3 -88 6
-2 1 -1 15 2 30 l5 26 43 -26 c23 -15 40 -31 38 -36z"/>
<path d="M698 622 c-32 -21 -56 -41 -55 -46 6 -18 58 -28 103 -21 42 6 44 8
44 40 0 42 -9 65 -24 64 -6 0 -37 -17 -68 -37z m60 -43 c-16 -10 -72 -12 -81
-2 -4 4 14 19 40 34 l48 28 3 -26 c2 -14 -2 -30 -10 -34z"/>
<path d="M1046 643 c-11 -11 -6 -23 9 -23 8 0 15 4 15 9 0 13 -16 22 -24 14z"/>
<path d="M1786 601 c-4 -5 -2 -12 3 -15 5 -4 12 -2 15 3 4 5 2 12 -3 15 -5 4
-12 2 -15 -3z"/>
<path d="M1841 564 c-12 -15 -21 -32 -21 -39 0 -15 71 -126 93 -143 9 -8 21
-11 27 -7 21 13 2 173 -23 193 -30 24 -55 23 -76 -4z m53 -7 c19 -14 35 -72
36 -126 0 -33 0 -34 -20 -16 -11 10 -32 38 -46 63 -23 39 -25 47 -13 68 14 28
19 29 43 11z"/>
<path d="M1040 567 c-28 -14 -48 -73 -49 -144 -2 -76 29 -65 94 33 39 59 43
83 17 107 -22 20 -29 21 -62 4z m55 -27 c7 -23 -29 -92 -64 -124 -21 -19 -21
-19 -21 10 0 16 5 47 10 69 13 58 62 87 75 45z"/>
<path d="M1516 551 c-4 -5 -2 -12 3 -15 5 -4 12 -2 15 3 4 5 2 12 -3 15 -5 4
-12 2 -15 -3z"/>
<path d="M1978 545 c-5 -6 19 -152 28 -166 10 -17 32 10 54 67 11 30 20 61 20
69 0 18 -87 44 -102 30z m81 -31 c1 -1 -5 -25 -14 -53 -17 -53 -35 -67 -35
-28 0 12 -3 39 -7 60 -6 38 -6 38 23 31 16 -4 31 -8 33 -10z"/>
<path d="M893 525 l-33 -14 16 -43 c19 -56 42 -90 57 -85 11 3 38 136 30 150
-6 11 -34 8 -70 -8z m46 -32 c-1 -16 -5 -41 -9 -58 l-7 -30 -16 37 c-26 58
-22 69 26 77 4 0 6 -11 6 -26z"/>
<path d="M1441 491 c-22 -17 -24 -23 -17 -75 8 -68 33 -136 51 -136 17 0 43
68 51 133 6 50 5 55 -21 75 -33 26 -34 26 -64 3z m54 -21 c19 -21 17 -67 -7
-140 l-11 -35 -13 30 c-20 48 -28 133 -14 150 16 20 23 19 45 -5z"/>
<path d="M1097 404 c-37 -51 -44 -66 -32 -71 17 -6 90 19 120 40 16 12 16 16
2 43 -31 60 -39 59 -90 -12z m73 6 c9 -16 6 -22 -17 -33 -16 -8 -39 -18 -52
-22 -22 -7 -21 -4 10 38 35 47 42 49 59 17z"/>
<path d="M1765 430 c-14 -22 -25 -42 -25 -45 0 -10 101 -55 125 -55 14 0 25 2
25 5 0 6 -91 135 -96 135 -2 0 -15 -18 -29 -40z m69 -42 c31 -43 23 -47 -34
-18 -40 20 -40 21 -24 46 10 14 20 21 24 17 3 -4 18 -25 34 -45z"/>
<path d="M1328 403 c-21 -14 -38 -30 -38 -35 0 -32 111 -130 124 -110 3 5 -1
33 -8 63 -8 30 -17 66 -20 82 -8 33 -11 33 -58 0z m51 -59 c7 -30 11 -58 8
-60 -2 -3 -21 14 -42 37 l-38 42 24 18 c13 10 27 19 30 19 3 0 11 -25 18 -56z"/>
<path d="M1566 408 c-20 -66 -32 -139 -24 -144 13 -8 75 43 96 79 17 27 16 28
-13 52 -33 27 -54 31 -59 13z m60 -39 c6 -10 -55 -83 -63 -75 -2 1 2 26 8 54
11 44 15 50 30 41 10 -5 21 -14 25 -20z"/>
</g>
</svg>
