  0
SECTION
  2
HEADER
  9
$ACADVER
  1
AC1014
  9
$HANDSEED
  5
FFFF
  9
$MEASUREMENT
 70
     1
  0
ENDSEC
  0
SECTION
  2
TABLES
  0
TABLE
  2
VPORT
  5
8
330
0
100
AcDbSymbolTable
 70
     4
  0
VPORT
  5
2E
330
8
100
AcDbSymbolTableRecord
100
AcDbViewportTableRecord
  2
*ACTIVE
 70
     0
 10
0.0
 20
0.0
 11
1.0
 21
1.0
 12
210.0
 22
148.5
 13
0.0
 23
0.0
 14
10.0
 24
10.0
 15
10.0
 25
10.0
 16
0.0
 26
0.0
 36
1.0
 17
0.0
 27
0.0
 37
0.0
 40
341.0
 41
1.24
 42
50.0
 43
0.0
 44
0.0
 50
0.0
 51
0.0
 71
     0
 72
   100
 73
     1
 74
     3
 75
     0
 76
     0
 77
     0
 78
     0
  0
ENDTAB
  0
TABLE
  2
LTYPE
  5
5
330
0
100
AcDbSymbolTable
 70
     1
  0
LTYPE
  5
14
330
5
100
AcDbSymbolTableRecord
100
AcDbLinetypeTableRecord
  2
BYBLOCK
 70
     0
  3

 72
    65
 73
     0
 40
0.0
  0
LTYPE
  5
15
330
5
100
AcDbSymbolTableRecord
100
AcDbLinetypeTableRecord
  2
BYLAYER
 70
     0
  3

 72
    65
 73
     0
 40
0.0
  0
LTYPE
  5
16
330
5
100
AcDbSymbolTableRecord
100
AcDbLinetypeTableRecord
  2
CONTINUOUS
 70
     0
  3
Solid line
 72
    65
 73
     0
 40
0.0
  0
ENDTAB
  0
TABLE
  2
LAYER
  5
2
100
AcDbSymbolTable
 70
2
  0
LAYER
  5
50
100
AcDbSymbolTableRecord
100
AcDbLayerTableRecord
  2
0
 70
0
  6
CONTINUOUS
  0
LAYER
  5
51
100
AcDbSymbolTableRecord
100
AcDbLayerTableRecord
  2
Layer_1
 70
0
  6
CONTINUOUS
  0
ENDTAB
  0
TABLE
  2
STYLE
  5
3
330
0
100
AcDbSymbolTable
 70
     1
  0
STYLE
  5
11
330
3
100
AcDbSymbolTableRecord
100
AcDbTextStyleTableRecord
  2
STANDARD
 70
     0
 40
0.0
 41
1.0
 50
0.0
 71
     0
 42
2.5
  3
txt
  4

  0
ENDTAB
  0
TABLE
  2
VIEW
  5
6
330
0
100
AcDbSymbolTable
 70
     0
  0
ENDTAB
  0
TABLE
  2
UCS
  5
7
330
0
100
AcDbSymbolTable
 70
     0
  0
ENDTAB
  0
TABLE
  2
APPID
  5
9
330
0
100
AcDbSymbolTable
 70
     2
  0
APPID
  5
12
330
9
100
AcDbSymbolTableRecord
100
AcDbRegAppTableRecord
  2
ACAD
 70
     0
  0
ENDTAB
  0
TABLE
  2
DIMSTYLE
  5
A
330
0
100
AcDbSymbolTable
 70
     1
  0
DIMSTYLE
105
27
330
A
100
AcDbSymbolTableRecord
100
AcDbDimStyleTableRecord
  2
ISO-25
 70
     0
  3

  4

  5

  6

  7

 40
1.0
 41
2.5
 42
0.625
 43
3.75
 44
1.25
 45
0.0
 46
0.0
 47
0.0
 48
0.0
140
2.5
141
2.5
142
0.0
143
0.03937007874016
144
1.0
145
0.0
146
1.0
147
0.625
 71
     0
 72
     0
 73
     0
 74
     0
 75
     0
 76
     0
 77
     1
 78
     8
170
     0
171
     3
172
     1
173
     0
174
     0
175
     0
176
     0
177
     0
178
     0
270
     2
271
     2
272
     2
273
     2
274
     3
340
11
275
     0
280
     0
281
     0
282
     0
283
     0
284
     8
285
     0
286
     0
287
     3
288
     0
  0
ENDTAB
  0
TABLE
  2
BLOCK_RECORD
  5
1
330
0
100
AcDbSymbolTable
 70
     1
  0
BLOCK_RECORD
  5
1F
330
1
100
AcDbSymbolTableRecord
100
AcDbBlockTableRecord
  2
*MODEL_SPACE
  0
BLOCK_RECORD
  5
1B
330
1
100
AcDbSymbolTableRecord
100
AcDbBlockTableRecord
  2
*PAPER_SPACE
  0
ENDTAB
  0
ENDSEC
  0
SECTION
  2
BLOCKS
  0
BLOCK
  5
20
330
1F
100
AcDbEntity
  8
0
100
AcDbBlockBegin
  2
*MODEL_SPACE
 70
     0
 10
0.0
 20
0.0
 30
0.0
  3
*MODEL_SPACE
  1

  0
ENDBLK
  5
21
330
1F
100
AcDbEntity
  8
0
100
AcDbBlockEnd
  0
BLOCK
  5
1C
330
1B
100
AcDbEntity
 67
     1
  8
0
100
AcDbBlockBegin
  2
*PAPER_SPACE
  1

  0
ENDBLK
  5
1D
330
1B
100
AcDbEntity
 67
     1
  8
0
100
AcDbBlockEnd
  0
ENDSEC
  0
SECTION
  2
ENTITIES
  0
LWPOLYLINE
  5
100
100
AcDbEntity
  8
Layer_1
 62
7
100
AcDbPolyline
 90
133
 70
0
 10
49.997431
 20
99.999995
 30
0.0
 10
47.486307
 20
99.938036
 30
0.0
 10
45.007316
 20
99.754105
 30
0.0
 10
42.563372
 20
99.451121
 30
0.0
 10
40.157394
 20
99.032003
 30
0.0
 10
37.792296
 20
98.499669
 30
0.0
 10
35.470996
 20
97.857037
 30
0.0
 10
33.196409
 20
97.107027
 30
0.0
 10
30.971453
 20
96.252557
 30
0.0
 10
28.799043
 20
95.296545
 30
0.0
 10
26.682095
 20
94.241911
 30
0.0
 10
24.623527
 20
93.091573
 30
0.0
 10
22.626255
 20
91.848449
 30
0.0
 10
20.693195
 20
90.515459
 30
0.0
 10
18.827262
 20
89.095520
 30
0.0
 10
17.031375
 20
87.591552
 30
0.0
 10
15.308449
 20
86.006474
 30
0.0
 10
13.661400
 20
84.343203
 30
0.0
 10
12.093145
 20
82.604658
 30
0.0
 10
10.606600
 20
80.793759
 30
0.0
 10
9.204682
 20
78.913424
 30
0.0
 10
7.890307
 20
76.966571
 30
0.0
 10
6.666391
 20
74.956118
 30
0.0
 10
5.535851
 20
72.884986
 30
0.0
 10
4.501602
 20
70.756092
 30
0.0
 10
3.566563
 20
68.572355
 30
0.0
 10
2.733648
 20
66.336694
 30
0.0
 10
2.005774
 20
64.052027
 30
0.0
 10
1.385858
 20
61.721273
 30
0.0
 10
0.876816
 20
59.347350
 30
0.0
 10
0.481564
 20
56.933178
 30
0.0
 10
0.203019
 20
54.481675
 30
0.0
 10
0.044097
 20
51.995759
 30
0.0
 10
7.999236
 20
51.995759
 30
0.0
 10
7.999236
 20
48.000550
 30
0.0
 10
0.044097
 20
48.000550
 30
0.0
 10
0.203421
 20
45.514959
 30
0.0
 10
0.482333
 20
43.063739
 30
0.0
 10
0.877919
 20
40.649811
 30
0.0
 10
1.387262
 20
38.276096
 30
0.0
 10
2.007448
 20
35.945514
 30
0.0
 10
2.735560
 20
33.660986
 30
0.0
 10
3.568683
 20
31.425432
 30
0.0
 10
4.503902
 20
29.241774
 30
0.0
 10
5.538301
 20
27.112932
 30
0.0
 10
6.668965
 20
25.041826
 30
0.0
 10
7.892978
 20
23.031378
 30
0.0
 10
9.207424
 20
21.084508
 30
0.0
 10
10.609387
 20
19.204136
 30
0.0
 10
12.095954
 20
17.393184
 30
0.0
 10
13.664207
 20
15.654571
 30
0.0
 10
15.311231
 20
13.991220
 30
0.0
 10
17.034111
 20
12.406049
 30
0.0
 10
18.829931
 20
10.901981
 30
0.0
 10
20.695776
 20
9.481935
 30
0.0
 10
22.628730
 20
8.148833
 30
0.0
 10
24.625878
 20
6.905595
 30
0.0
 10
26.684303
 20
5.755141
 30
0.0
 10
28.801091
 20
4.700393
 30
0.0
 10
30.973326
 20
3.744271
 30
0.0
 10
33.198093
 20
2.889696
 30
0.0
 10
35.472475
 20
2.139588
 30
0.0
 10
37.793557
 20
1.496868
 30
0.0
 10
40.158425
 20
0.964457
 30
0.0
 10
42.564161
 20
0.545276
 30
0.0
 10
45.007851
 20
0.242244
 30
0.0
 10
47.486580
 20
0.058283
 30
0.0
 10
49.997431
 20
-0.003686
 30
0.0
 10
52.570442
 20
0.061392
 30
0.0
 10
55.109711
 20
0.254529
 30
0.0
 10
57.612092
 20
0.572581
 30
0.0
 10
60.074444
 20
1.012405
 30
0.0
 10
62.493620
 20
1.570856
 30
0.0
 10
64.866479
 20
2.244792
 30
0.0
 10
67.189875
 20
3.031067
 30
0.0
 10
69.460664
 20
3.926538
 30
0.0
 10
71.675704
 20
4.928062
 30
0.0
 10
73.831850
 20
6.032493
 30
0.0
 10
75.925958
 20
7.236689
 30
0.0
 10
77.954884
 20
8.537506
 30
0.0
 10
79.915485
 20
9.931799
 30
0.0
 10
81.804617
 20
11.416425
 30
0.0
 10
83.619135
 20
12.988240
 30
0.0
 10
85.355895
 20
14.644099
 30
0.0
 10
87.011755
 20
16.380860
 30
0.0
 10
88.583570
 20
18.195378
 30
0.0
 10
90.068196
 20
20.084510
 30
0.0
 10
91.462489
 20
22.045110
 30
0.0
 10
92.763305
 20
24.074037
 30
0.0
 10
93.967501
 20
26.168145
 30
0.0
 10
95.071933
 20
28.324291
 30
0.0
 10
96.073456
 20
30.539330
 30
0.0
 10
96.968928
 20
32.810120
 30
0.0
 10
97.755203
 20
35.133516
 30
0.0
 10
98.429138
 20
37.506374
 30
0.0
 10
98.987590
 20
39.925551
 30
0.0
 10
99.427414
 20
42.387902
 30
0.0
 10
99.745466
 20
44.890284
 30
0.0
 10
99.938603
 20
47.429553
 30
0.0
 10
100.003681
 20
50.002564
 30
0.0
 10
99.938603
 20
52.575550
 30
0.0
 10
99.745466
 20
55.114745
 30
0.0
 10
99.427414
 20
57.617008
 30
0.0
 10
98.987590
 20
60.079198
 30
0.0
 10
98.429138
 20
62.498175
 30
0.0
 10
97.755203
 20
64.870798
 30
0.0
 10
96.968928
 20
67.193926
 30
0.0
 10
96.073456
 20
69.464419
 30
0.0
 10
95.071933
 20
71.679137
 30
0.0
 10
93.967501
 20
73.834938
 30
0.0
 10
92.763305
 20
75.928681
 30
0.0
 10
91.462489
 20
77.957227
 30
0.0
 10
90.068196
 20
79.917434
 30
0.0
 10
88.583570
 20
81.806162
 30
0.0
 10
87.011755
 20
83.620271
 30
0.0
 10
85.355895
 20
85.356619
 30
0.0
 10
83.619135
 20
87.012066
 30
0.0
 10
81.804617
 20
88.583471
 30
0.0
 10
79.915485
 20
90.067694
 30
0.0
 10
77.954884
 20
91.461593
 30
0.0
 10
75.925958
 20
92.762029
 30
0.0
 10
73.831850
 20
93.965861
 30
0.0
 10
71.675704
 20
95.069947
 30
0.0
 10
69.460664
 20
96.071148
 30
0.0
 10
67.189875
 20
96.966323
 30
0.0
 10
64.866479
 20
97.752331
 30
0.0
 10
62.493620
 20
98.426031
 30
0.0
 10
60.074444
 20
98.984283
 30
0.0
 10
57.612092
 20
99.423946
 30
0.0
 10
55.109711
 20
99.741879
 30
0.0
 10
52.570442
 20
99.934942
 30
0.0
 10
49.997431
 20
99.999995
 30
0.0
 10
49.997431
 20
99.999995
 30
0.0
  0
LWPOLYLINE
  5
101
100
AcDbEntity
  8
Layer_1
 62
7
100
AcDbPolyline
 90
28
 70
0
 10
44.000208
 20
89.548953
 30
0.0
 10
44.000208
 20
69.070203
 30
0.0
 10
41.752961
 20
68.198977
 30
0.0
 10
39.647923
 20
67.071048
 30
0.0
 10
37.704458
 20
65.705826
 30
0.0
 10
35.941933
 20
64.122727
 30
0.0
 10
34.379714
 20
62.341160
 30
0.0
 10
33.037165
 20
60.380540
 30
0.0
 10
31.933653
 20
58.260278
 30
0.0
 10
31.088542
 20
55.999786
 30
0.0
 10
10.451042
 20
55.999786
 30
0.0
 10
11.066696
 20
59.196373
 30
0.0
 10
11.930693
 20
62.297179
 30
0.0
 10
13.032136
 20
65.291306
 30
0.0
 10
14.360128
 20
68.167858
 30
0.0
 10
15.903771
 20
70.915936
 30
0.0
 10
17.652168
 20
73.524644
 30
0.0
 10
19.594422
 20
75.983084
 30
0.0
 10
21.719635
 20
78.280359
 30
0.0
 10
24.016910
 20
80.405573
 30
0.0
 10
26.475351
 20
82.347826
 30
0.0
 10
29.084059
 20
84.096223
 30
0.0
 10
31.832137
 20
85.639866
 30
0.0
 10
34.708688
 20
86.967858
 30
0.0
 10
37.702816
 20
88.069301
 30
0.0
 10
40.803621
 20
88.933299
 30
0.0
 10
44.000208
 20
89.548953
 30
0.0
 10
44.000208
 20
89.548953
 30
0.0
  0
LWPOLYLINE
  5
102
100
AcDbEntity
  8
Layer_1
 62
7
100
AcDbPolyline
 90
28
 70
0
 10
56.003472
 20
89.548953
 30
0.0
 10
59.199960
 20
88.933299
 30
0.0
 10
62.300486
 20
88.069301
 30
0.0
 10
65.294178
 20
86.967858
 30
0.0
 10
68.170166
 20
85.639866
 30
0.0
 10
70.917576
 20
84.096223
 30
0.0
 10
73.525539
 20
82.347826
 30
0.0
 10
75.983183
 20
80.405573
 30
0.0
 10
78.279636
 20
78.280359
 30
0.0
 10
80.404026
 20
75.983084
 30
0.0
 10
82.345483
 20
73.524644
 30
0.0
 10
84.093135
 20
70.915936
 30
0.0
 10
85.636111
 20
68.167858
 30
0.0
 10
86.963538
 20
65.291306
 30
0.0
 10
88.064547
 20
62.297179
 30
0.0
 10
88.928264
 20
59.196373
 30
0.0
 10
89.543819
 20
55.999786
 30
0.0
 10
68.915139
 20
55.999786
 30
0.0
 10
68.069614
 20
58.260132
 30
0.0
 10
66.965997
 20
60.380310
 30
0.0
 10
65.623557
 20
62.340898
 30
0.0
 10
64.061564
 20
64.122473
 30
0.0
 10
62.299289
 20
65.705613
 30
0.0
 10
60.356002
 20
67.070896
 30
0.0
 10
58.250973
 20
68.198900
 30
0.0
 10
56.003472
 20
69.070203
 30
0.0
 10
56.003472
 20
89.548953
 30
0.0
 10
56.003472
 20
89.548953
 30
0.0
  0
LWPOLYLINE
  5
103
100
AcDbEntity
  8
Layer_1
 62
7
100
AcDbPolyline
 90
24
 70
0
 10
49.283056
 20
84.715898
 30
0.0
 10
50.720625
 20
84.715898
 30
0.0
 10
50.720625
 20
53.204023
 30
0.0
 10
51.740965
 20
52.784826
 30
0.0
 10
52.554371
 20
52.067293
 30
0.0
 10
53.092518
 20
51.117761
 30
0.0
 10
53.287083
 20
50.002564
 30
0.0
 10
53.092518
 20
48.885990
 30
0.0
 10
52.554371
 20
47.933425
 30
0.0
 10
51.740965
 20
47.212861
 30
0.0
 10
50.720625
 20
46.792286
 30
0.0
 10
50.720625
 20
15.280411
 30
0.0
 10
49.283056
 20
15.280411
 30
0.0
 10
49.283056
 20
46.783467
 30
0.0
 10
48.259130
 20
47.203262
 30
0.0
 10
47.442938
 20
47.926170
 30
0.0
 10
46.902985
 20
48.882501
 30
0.0
 10
46.707778
 20
50.002564
 30
0.0
 10
46.903133
 20
51.119449
 30
0.0
 10
47.443331
 20
52.069569
 30
0.0
 10
48.259572
 20
52.786551
 30
0.0
 10
49.283056
 20
53.204023
 30
0.0
 10
49.283056
 20
84.715898
 30
0.0
 10
49.283056
 20
84.715898
 30
0.0
  0
LWPOLYLINE
  5
104
100
AcDbEntity
  8
Layer_1
 62
7
100
AcDbPolyline
 90
28
 70
0
 10
10.451042
 20
43.996523
 30
0.0
 10
31.229653
 20
43.996523
 30
0.0
 10
32.100997
 20
41.813694
 30
0.0
 10
33.215478
 20
39.767886
 30
0.0
 10
34.555097
 20
37.877053
 30
0.0
 10
36.101851
 20
36.159148
 30
0.0
 10
37.837741
 20
34.632126
 30
0.0
 10
39.744764
 20
33.313941
 30
0.0
 10
41.804920
 20
32.222547
 30
0.0
 10
44.000208
 20
31.375898
 30
0.0
 10
44.000208
 20
10.456175
 30
0.0
 10
40.803621
 20
11.071730
 30
0.0
 10
37.702816
 20
11.935446
 30
0.0
 10
34.708688
 20
13.036454
 30
0.0
 10
31.832137
 20
14.363882
 30
0.0
 10
29.084059
 20
15.906857
 30
0.0
 10
26.475351
 20
17.654509
 30
0.0
 10
24.016910
 20
19.595966
 30
0.0
 10
21.719635
 20
21.720357
 30
0.0
 10
19.594422
 20
24.016810
 30
0.0
 10
17.652168
 20
26.474454
 30
0.0
 10
15.903771
 20
29.082417
 30
0.0
 10
14.360128
 20
31.829828
 30
0.0
 10
13.032136
 20
34.705816
 30
0.0
 10
11.930693
 20
37.699508
 30
0.0
 10
11.066696
 20
40.800034
 30
0.0
 10
10.451042
 20
43.996523
 30
0.0
 10
10.451042
 20
43.996523
 30
0.0
  0
LWPOLYLINE
  5
105
100
AcDbEntity
  8
Layer_1
 62
7
100
AcDbPolyline
 90
28
 70
0
 10
68.774028
 20
43.996523
 30
0.0
 10
89.543819
 20
43.996523
 30
0.0
 10
88.928264
 20
40.800034
 30
0.0
 10
88.064547
 20
37.699508
 30
0.0
 10
86.963538
 20
34.705816
 30
0.0
 10
85.636111
 20
31.829828
 30
0.0
 10
84.093135
 20
29.082417
 30
0.0
 10
82.345483
 20
26.474454
 30
0.0
 10
80.404026
 20
24.016810
 30
0.0
 10
78.279636
 20
21.720357
 30
0.0
 10
75.983183
 20
19.595966
 30
0.0
 10
73.525539
 20
17.654509
 30
0.0
 10
70.917576
 20
15.906857
 30
0.0
 10
68.170166
 20
14.363882
 30
0.0
 10
65.294178
 20
13.036454
 30
0.0
 10
62.300486
 20
11.935446
 30
0.0
 10
59.199960
 20
11.071730
 30
0.0
 10
56.003472
 20
10.456175
 30
0.0
 10
56.003472
 20
31.375898
 30
0.0
 10
58.199026
 20
32.222625
 30
0.0
 10
60.259179
 20
33.314084
 30
0.0
 10
62.166026
 20
34.632317
 30
0.0
 10
63.901664
 20
36.159365
 30
0.0
 10
65.448187
 20
37.877269
 30
0.0
 10
66.787692
 20
39.768069
 30
0.0
 10
67.902274
 20
41.813806
 30
0.0
 10
68.774028
 20
43.996523
 30
0.0
 10
68.774028
 20
43.996523
 30
0.0
  0
ENDSEC
  0
SECTION
  2
OBJECTS
  0
DICTIONARY
  5
C
330
0
100
AcDbDictionary
  3
ACAD_GROUP
350
D
  3
ACAD_MLINESTYLE
350
17
  0
DICTIONARY
  5
D
330
C
100
AcDbDictionary
  0
DICTIONARY
  5
1A
330
C
100
AcDbDictionary
  0
DICTIONARY
  5
17
330
C
100
AcDbDictionary
  3
STANDARD
350
18
  0
DICTIONARY
  5
19
330
C
100
AcDbDictionary
  0
ENDSEC
  0
EOF
